{
  "accessors": [
    {
      "bufferView": 2,
      "componentType": 5126,
      "count": 499,
      "max": [
        5.8859944343566895,
        4.538147926330566,
        7.820000171661377
      ],
      "min": [
        -12.698676109313965,
        -18.677499771118164,
        -7.820000171661377
      ],
      "type": "VEC3"
    },
    {
      "bufferView": 2,
      "byteOffset": 5988,
      "componentType": 5126,
      "count": 499,
      "max": [
        0.9998739957809448,
        1.0,
        1.0
      ],
      "min": [
        -1.0,
        -1.0,
        -1.0
      ],
      "type": "VEC3"
    },
    {
      "bufferView": 1,
      "componentType": 5126,
      "count": 499,
      "max": [
        0.9914257526397705,
        0.9915496110916138
      ],
      "min": [
        0.008574252016842365,
        0.00845038890838623
      ],
      "type": "VEC2"
    },
    {
      "bufferView": 0,
      "componentType": 5125,
      "count": 1722,
      "type": "SCALAR"
    },
    {
      "bufferView": 2,
      "byteOffset": 11976,
      "componentType": 5126,
      "count": 2801,
      "max": [
        7.986807346343994,
        3.2732021808624268,
        7.820000171661377
      ],
      "min": [
        -7.832912921905518,
        -20.24161148071289,
        -7.820000171661377
      ],
      "type": "VEC3"
    },
    {
      "bufferView": 2,
      "byteOffset": 45588,
      "componentType": 5126,
      "count": 2801,
      "max": [
        0.9998740553855896,
        1.0,
        0.9995750784873962
      ],
      "min": [
        -0.9998740553855896,
        -1.0,
        -0.9995750784873962
      ],
      "type": "VEC3"
    },
    {
      "bufferView": 1,
      "byteOffset": 3992,
      "componentType": 5126,
      "count": 2801,
      "max": [
        0.9913457632064819,
        0.9911715388298035
      ],
      "min": [
        0.008654246106743813,
        0.008828520774841309
      ],
      "type": "VEC2"
    },
    {
      "bufferView": 0,
      "byteOffset": 6888,
      "componentType": 5125,
      "count": 14142,
      "type": "SCALAR"
    },
    {
      "bufferView": 2,
      "byteOffset": 79200,
      "componentType": 5126,
      "count": 2801,
      "max": [
        7.596249580383301,
        3.2732021808624268,
        7.820000171661377
      ],
      "min": [
        -8.043750762939453,
        -16.890911102294922,
        -7.820000171661377
      ],
      "type": "VEC3"
    },
    {
      "bufferView": 2,
      "byteOffset": 112812,
      "componentType": 5126,
      "count": 2801,
      "max": [
        0.9998740553855896,
        1.0,
        0.9995750784873962
      ],
      "min": [
        -0.9998740553855896,
        -1.0,
        -0.9995750784873962
      ],
      "type": "VEC3"
    },
    {
      "bufferView": 1,
      "byteOffset": 26400,
      "componentType": 5126,
      "count": 2801,
      "max": [
        0.9906253218650818,
        0.9913762807846069
      ],
      "min": [
        0.009374678134918213,
        0.008623719215393066
      ],
      "type": "VEC2"
    },
    {
      "bufferView": 0,
      "byteOffset": 63456,
      "componentType": 5125,
      "count": 14142,
      "type": "SCALAR"
    },
    {
      "bufferView": 2,
      "byteOffset": 146424,
      "componentType": 5126,
      "count": 2867,
      "max": [
        7.596249580383301,
        3.2732021808624268,
        7.820000171661377
      ],
      "min": [
        -8.043750762939453,
        -16.890911102294922,
        -7.820000171661377
      ],
      "type": "VEC3"
    },
    {
      "bufferView": 2,
      "byteOffset": 180828,
      "componentType": 5126,
      "count": 2867,
      "max": [
        0.9998740553855896,
        1.0,
        0.9995750784873962
      ],
      "min": [
        -0.9998740553855896,
        -1.0,
        -0.9995750784873962
      ],
      "type": "VEC3"
    },
    {
      "bufferView": 1,
      "byteOffset": 48808,
      "componentType": 5126,
      "count": 2867,
      "max": [
        0.9910228252410889,
        0.991212010383606
      ],
      "min": [
        0.008977149613201618,
        0.008787989616394043
      ],
      "type": "VEC2"
    },
    {
      "bufferView": 0,
      "byteOffset": 120024,
      "componentType": 5125,
      "count": 14142,
      "type": "SCALAR"
    },
    {
      "bufferView": 2,
      "byteOffset": 215232,
      "componentType": 5126,
      "count": 563,
      "max": [
        5.610000133514404,
        17.725299835205078,
        3.7800002098083496
      ],
      "min": [
        -5.610000133514404,
        -3.136798143386841,
        -3.7800002098083496
      ],
      "type": "VEC3"
    },
    {
      "bufferView": 2,
      "byteOffset": 221988,
      "componentType": 5126,
      "count": 563,
      "max": [
        0.9995750784873962,
        1.0,
        1.0
      ],
      "min": [
        -0.9995750784873962,
        -1.0,
        -1.0
      ],
      "type": "VEC3"
    },
    {
      "bufferView": 1,
      "byteOffset": 71744,
      "componentType": 5126,
      "count": 563,
      "max": [
        0.9911901354789734,
        0.9909200072288513
      ],
      "min": [
        0.008809852413833141,
        0.009080052375793457
      ],
      "type": "VEC2"
    },
    {
      "bufferView": 0,
      "byteOffset": 176592,
      "componentType": 5125,
      "count": 1938,
      "type": "SCALAR"
    },
    {
      "bufferView": 2,
      "byteOffset": 228744,
      "componentType": 5126,
      "count": 563,
      "max": [
        10.0,
        17.725299835205078,
        10.0
      ],
      "min": [
        -10.0,
        -3.424290418624878,
        -10.0
      ],
      "type": "VEC3"
    },
    {
      "bufferView": 2,
      "byteOffset": 235500,
      "componentType": 5126,
      "count": 563,
      "max": [
        0.9995750784873962,
        1.0,
        1.0
      ],
      "min": [
        -0.9995750784873962,
        -1.0,
        -1.0
      ],
      "type": "VEC3"
    },
    {
      "bufferView": 1,
      "byteOffset": 76248,
      "componentType": 5126,
      "count": 563,
      "max": [
        0.9911637306213379,
        0.9919736385345459
      ],
      "min": [
        0.008836277760565281,
        0.008026361465454102
      ],
      "type": "VEC2"
    },
    {
      "bufferView": 0,
      "byteOffset": 184344,
      "componentType": 5125,
      "count": 1938,
      "type": "SCALAR"
    },
    {
      "bufferView": 2,
      "byteOffset": 242256,
      "componentType": 5126,
      "count": 302,
      "max": [
        5.610000133514404,
        1.7464429140090942,
        11.99246883392334
      ],
      "min": [
        -5.610000133514404,
        -1.6080632209777832,
        -5.610000133514404
      ],
      "type": "VEC3"
    },
    {
      "bufferView": 2,
      "byteOffset": 245880,
      "componentType": 5126,
      "count": 302,
      "max": [
        0.9995749592781067,
        1.0,
        0.9995749592781067
      ],
      "min": [
        -0.9995749592781067,
        -1.0,
        -0.9995749592781067
      ],
      "type": "VEC3"
    },
    {
      "bufferView": 1,
      "byteOffset": 80752,
      "componentType": 5126,
      "count": 302,
      "max": [
        0.991337776184082,
        0.9906381964683533
      ],
      "min": [
        0.008662224747240543,
        0.009361863136291504
      ],
      "type": "VEC2"
    },
    {
      "bufferView": 0,
      "byteOffset": 192096,
      "componentType": 5125,
      "count": 864,
      "type": "SCALAR"
    },
    {
      "bufferView": 2,
      "byteOffset": 249504,
      "componentType": 5126,
      "count": 644,
      "max": [
        5.603180408477783,
        5.654124736785889,
        4.55348014831543
      ],
      "min": [
        -5.616819858551025,
        -11.948344230651855,
        -4.55348014831543
      ],
      "type": "VEC3"
    },
    {
      "bufferView": 2,
      "byteOffset": 257232,
      "componentType": 5126,
      "count": 644,
      "max": [
        1.0,
        1.0,
        1.0
      ],
      "min": [
        -1.0,
        -1.0,
        -1.0
      ],
      "type": "VEC3"
    },
    {
      "bufferView": 1,
      "byteOffset": 83168,
      "componentType": 5126,
      "count": 644,
      "max": [
        0.990906298160553,
        0.991828978061676
      ],
      "min": [
        0.009093724191188812,
        0.00817108154296875
      ],
      "type": "VEC2"
    },
    {
      "bufferView": 0,
      "byteOffset": 195552,
      "componentType": 5125,
      "count": 2448,
      "type": "SCALAR"
    }
  ],
  "asset": {
    "extras": {
      "author": "stPixel (https://sketchfab.com/innasparrow)",
      "license": "CC-BY-4.0 (http://creativecommons.org/licenses/by/4.0/)",
      "source": "https://sketchfab.com/3d-models/3d-icon-pins-8a4747df22054de7908664e41b0670ed",
      "title": "3D icon PINS"
    },
    "generator": "Sketchfab-12.66.0",
    "version": "2.0"
  },
  "bufferViews": [
    {
      "buffer": 0,
      "byteLength": 205344,
      "name": "floatBufferViews",
      "target": 34963
    },
    {
      "buffer": 0,
      "byteLength": 88320,
      "byteOffset": 205344,
      "byteStride": 8,
      "name": "floatBufferViews",
      "target": 34962
    },
    {
      "buffer": 0,
      "byteLength": 264960,
      "byteOffset": 293664,
      "byteStride": 12,
      "name": "floatBufferViews",
      "target": 34962
    }
  ],
  "buffers": [
    {
      "byteLength": 558624,
      "uri": "scene.bin"
    }
  ],
  "images": [
    {
      "uri": "textures/pin_flag_baseColor.jpeg"
    },
    {
      "uri": "textures/pin_1_baseColor.jpeg"
    },
    {
      "uri": "textures/pin_2_baseColor.jpeg"
    },
    {
      "uri": "textures/pin_3_baseColor.jpeg"
    },
    {
      "uri": "textures/pin_4_baseColor.jpeg"
    },
    {
      "uri": "textures/pin_5_baseColor.jpeg"
    },
    {
      "uri": "textures/pin_6_baseColor.jpeg"
    },
    {
      "uri": "textures/pin_7_baseColor.jpeg"
    }
  ],
  "materials": [
    {
      "doubleSided": true,
      "name": "pin_flag",
      "pbrMetallicRoughness": {
        "baseColorTexture": {
          "index": 0
        },
        "metallicFactor": 0.0,
        "roughnessFactor": 0.9524317154
      }
    },
    {
      "doubleSided": true,
      "name": "pin_1",
      "pbrMetallicRoughness": {
        "baseColorTexture": {
          "index": 1
        },
        "metallicFactor": 0.0,
        "roughnessFactor": 0.9524317154
      }
    },
    {
      "doubleSided": true,
      "name": "pin_2",
      "pbrMetallicRoughness": {
        "baseColorTexture": {
          "index": 2
        },
        "metallicFactor": 0.0,
        "roughnessFactor": 0.9524317154
      }
    },
    {
      "doubleSided": true,
      "name": "pin_3",
      "pbrMetallicRoughness": {
        "baseColorTexture": {
          "index": 3
        },
        "metallicFactor": 0.0,
        "roughnessFactor": 0.9524317154
      }
    },
    {
      "doubleSided": true,
      "name": "pin_4",
      "pbrMetallicRoughness": {
        "baseColorTexture": {
          "index": 4
        },
        "metallicFactor": 0.0,
        "roughnessFactor": 0.9524317154
      }
    },
    {
      "doubleSided": true,
      "name": "pin_5",
      "pbrMetallicRoughness": {
        "baseColorTexture": {
          "index": 5
        },
        "metallicFactor": 0.0,
        "roughnessFactor": 0.9524317154
      }
    },
    {
      "doubleSided": true,
      "name": "pin_6",
      "pbrMetallicRoughness": {
        "baseColorTexture": {
          "index": 6
        },
        "metallicFactor": 0.0,
        "roughnessFactor": 0.9524317154
      }
    },
    {
      "doubleSided": true,
      "name": "pin_7",
      "pbrMetallicRoughness": {
        "baseColorTexture": {
          "index": 7
        },
        "metallicFactor": 0.0,
        "roughnessFactor": 0.9524317154
      }
    }
  ],
  "meshes": [
    {
      "name": "pin_flag_pin flag_0",
      "primitives": [
        {
          "attributes": {
            "NORMAL": 1,
            "POSITION": 0,
            "TEXCOORD_0": 2
          },
          "indices": 3,
          "material": 0,
          "mode": 4
        }
      ]
    },
    {
      "name": "pin_1_pin_1_0",
      "primitives": [
        {
          "attributes": {
            "NORMAL": 5,
            "POSITION": 4,
            "TEXCOORD_0": 6
          },
          "indices": 7,
          "material": 1,
          "mode": 4
        }
      ]
    },
    {
      "name": "pin_2_pin_2_0",
      "primitives": [
        {
          "attributes": {
            "NORMAL": 9,
            "POSITION": 8,
            "TEXCOORD_0": 10
          },
          "indices": 11,
          "material": 2,
          "mode": 4
        }
      ]
    },
    {
      "name": "pin_3_pin_3_0",
      "primitives": [
        {
          "attributes": {
            "NORMAL": 13,
            "POSITION": 12,
            "TEXCOORD_0": 14
          },
          "indices": 15,
          "material": 3,
          "mode": 4
        }
      ]
    },
    {
      "name": "pin_4_pin_4_0",
      "primitives": [
        {
          "attributes": {
            "NORMAL": 17,
            "POSITION": 16,
            "TEXCOORD_0": 18
          },
          "indices": 19,
          "material": 4,
          "mode": 4
        }
      ]
    },
    {
      "name": "pin_5_pin_5_0",
      "primitives": [
        {
          "attributes": {
            "NORMAL": 21,
            "POSITION": 20,
            "TEXCOORD_0": 22
          },
          "indices": 23,
          "material": 5,
          "mode": 4
        }
      ]
    },
    {
      "name": "pin_6_pin_6_0",
      "primitives": [
        {
          "attributes": {
            "NORMAL": 25,
            "POSITION": 24,
            "TEXCOORD_0": 26
          },
          "indices": 27,
          "material": 6,
          "mode": 4
        }
      ]
    },
    {
      "name": "pin_7_pin_7_0",
      "primitives": [
        {
          "attributes": {
            "NORMAL": 29,
            "POSITION": 28,
            "TEXCOORD_0": 30
          },
          "indices": 31,
          "material": 7,
          "mode": 4
        }
      ]
    }
  ],
  "nodes": [
    {
      "children": [
        1
      ],
      "matrix": [
        1.0,
        0.0,
        0.0,
        0.0,
        0.0,
        2.220446049250313e-16,
        -1.0,
        0.0,
        0.0,
        1.0,
        2.220446049250313e-16,
        0.0,
        0.0,
        0.0,
        0.0,
        1.0
      ],
      "name": "Sketchfab_model"
    },
    {
      "children": [
        2
      ],
      "matrix": [
        1.0,
        0.0,
        0.0,
        0.0,
        0.0,
        0.0,
        1.0,
        0.0,
        0.0,
        -1.0,
        0.0,
        0.0,
        0.0,
        0.0,
        0.0,
        1.0
      ],
      "name": "3D icon PINS.fbx"
    },
    {
      "children": [
        3,
        5,
        7,
        9,
        11,
        13,
        15,
        17
      ],
      "name": "RootNode"
    },
    {
      "children": [
        4
      ],
      "matrix": [
        1.0,
        0.0,
        0.0,
        0.0,
        0.0,
        1.0,
        0.0,
        0.0,
        0.0,
        0.0,
        1.0,
        0.0,
        -172.63279724121094,
        44.83137512207031,
        6.938893903907228e-18,
        1.0
      ],
      "name": "pin_flag"
    },
    {
      "mesh": 0,
      "name": "pin_flag_pin flag_0"
    },
    {
      "children": [
        6
      ],
      "matrix": [
        0.9459420227075572,
        -0.32433576687737553,
        0.0,
        0.0,
        0.32433576687737553,
        0.9459420227075572,
        0.0,
        0.0,
        0.0,
        0.0,
        1.0,
        0.0,
        -146.20758056640625,
        43.09327697753906,
        6.938893903907228e-18,
        1.0
      ],
      "name": "pin_1"
    },
    {
      "mesh": 1,
      "name": "pin_1_pin_1_0"
    },
    {
      "children": [
        8
      ],
      "matrix": [
        1.0,
        0.0,
        0.0,
        0.0,
        0.0,
        1.0,
        0.0,
        0.0,
        0.0,
        0.0,
        1.0,
        0.0,
        -120.22577667236328,
        43.04478454589844,
        6.938893903907228e-18,
        1.0
      ],
      "name": "pin_2"
    },
    {
      "mesh": 2,
      "name": "pin_2_pin_2_0"
    },
    {
      "children": [
        10
      ],
      "matrix": [
        1.0,
        0.0,
        0.0,
        0.0,
        0.0,
        1.0,
        0.0,
        0.0,
        0.0,
        0.0,
        1.0,
        0.0,
        -97.099609375,
        43.04478454589844,
        6.938893903907228e-18,
        1.0
      ],
      "name": "pin_3"
    },
    {
      "mesh": 3,
      "name": "pin_3_pin_3_0"
    },
    {
      "children": [
        12
      ],
      "matrix": [
        1.0,
        0.0,
        0.0,
        0.0,
        0.0,
        1.0,
        0.0,
        0.0,
        0.0,
        0.0,
        1.0,
        0.0,
        -178.5574493408203,
        -6.765437126159668,
        6.938893903907228e-18,
        1.0
      ],
      "name": "pin_4"
    },
    {
      "mesh": 4,
      "name": "pin_4_pin_4_0"
    },
    {
      "children": [
        14
      ],
      "matrix": [
        1.0,
        0.0,
        0.0,
        0.0,
        0.0,
        1.0,
        0.0,
        0.0,
        0.0,
        0.0,
        1.0,
        0.0,
        -148.4683380126953,
        -6.765437126159668,
        6.938893903907228e-18,
        1.0
      ],
      "name": "pin_5"
    },
    {
      "mesh": 5,
      "name": "pin_5_pin_5_0"
    },
    {
      "children": [
        16
      ],
      "matrix": [
        1.0,
        0.0,
        0.0,
        0.0,
        0.0,
        2.220446049250313e-16,
        1.0,
        0.0,
        0.0,
        -1.0,
        2.220446049250313e-16,
        0.0,
        -120.9977798461914,
        5.349862098693848,
        -0.0737152025103569,
        1.0
      ],
      "name": "pin_6"
    },
    {
      "mesh": 6,
      "name": "pin_6_pin_6_0"
    },
    {
      "children": [
        18
      ],
      "matrix": [
        1.0,
        0.0,
        0.0,
        0.0,
        0.0,
        1.0,
        0.0,
        0.0,
        0.0,
        0.0,
        1.0,
        0.0,
        -97.14362335205078,
        5.305737495422363,
        0.08451789617538452,
        1.0
      ],
      "name": "pin_7"
    },
    {
      "mesh": 7,
      "name": "pin_7_pin_7_0"
    }
  ],
  "samplers": [
    {
      "magFilter": 9729,
      "minFilter": 9987,
      "wrapS": 10497,
      "wrapT": 10497
    }
  ],
  "scene": 0,
  "scenes": [
    {
      "name": "Sketchfab_Scene",
      "nodes": [
        0
      ]
    }
  ],
  "textures": [
    {
      "sampler": 0,
      "source": 0
    },
    {
      "sampler": 0,
      "source": 1
    },
    {
      "sampler": 0,
      "source": 2
    },
    {
      "sampler": 0,
      "source": 3
    },
    {
      "sampler": 0,
      "source": 4
    },
    {
      "sampler": 0,
      "source": 5
    },
    {
      "sampler": 0,
      "source": 6
    },
    {
      "sampler": 0,
      "source": 7
    }
  ]
}
