{
  "accessors": [
    {
      "bufferView": 2,
      "componentType": 5126,
      "count": 2084,
      "max": [
        1.9376475811004639,
        0.20000016689300537,
        2.9420652389526367
      ],
      "min": [
        -1.9373739957809448,
        -0.2000081092119217,
        -0.932956337928772
      ],
      "type": "VEC3"
    },
    {
      "bufferView": 2,
      "byteOffset": 25008,
      "componentType": 5126,
      "count": 2084,
      "max": [
        1.0,
        1.0,
        1.0
      ],
      "min": [
        -1.0,
        -1.0,
        -1.0
      ],
      "type": "VEC3"
    },
    {
      "bufferView": 1,
      "componentType": 5126,
      "count": 2084,
      "max": [
        1.000000238418579,
        1.000000238418579
      ],
      "min": [
        -3.725290298461914e-09,
        -3.725290298461914e-09
      ],
      "type": "VEC2"
    },
    {
      "bufferView": 0,
      "componentType": 5125,
      "count": 9216,
      "type": "SCALAR"
    },
    {
      "bufferView": 2,
      "byteOffset": 50016,
      "componentType": 5126,
      "count": 2560,
      "max": [
        2.4839882850646973,
        0.2000007927417755,
        3.4839882850646973
      ],
      "min": [
        -2.483988046646118,
        -0.2000122219324112,
        -1.483987808227539
      ],
      "type": "VEC3"
    },
    {
      "bufferView": 2,
      "byteOffset": 80736,
      "componentType": 5126,
      "count": 2560,
      "max": [
        1.0,
        1.0,
        1.0
      ],
      "min": [
        -1.0,
        -1.0,
        -1.0
      ],
      "type": "VEC3"
    },
    {
      "bufferView": 1,
      "byteOffset": 16672,
      "componentType": 5126,
      "count": 2560,
      "max": [
        0.0,
        0.0
      ],
      "min": [
        0.0,
        0.0
      ],
      "type": "VEC2"
    },
    {
      "bufferView": 0,
      "byteOffset": 36864,
      "componentType": 5125,
      "count": 12288,
      "type": "SCALAR"
    },
    {
      "bufferView": 3,
      "componentType": 5126,
      "count": 120,
      "max": [
        4.0
      ],
      "min": [
        0.03333333507180214
      ],
      "type": "SCALAR"
    },
    {
      "bufferView": 5,
      "componentType": 5126,
      "count": 120,
      "max": [
        0.4603371322154999,
        0.90387362241745,
        1.0,
        1.0
      ],
      "min": [
        -0.5966485738754272,
        -0.8999873399734497,
        -0.9982301592826843,
        -4.316281945193623e-07
      ],
      "type": "VEC4"
    },
    {
      "bufferView": 3,
      "byteOffset": 480,
      "componentType": 5126,
      "count": 84,
      "max": [
        4.0
      ],
      "min": [
        0.03333333507180214
      ],
      "type": "SCALAR"
    },
    {
      "bufferView": 4,
      "componentType": 5126,
      "count": 84,
      "max": [
        1.0,
        1.0,
        1.0
      ],
      "min": [
        0.9999999403953552,
        0.9999999403953552,
        0.9999999403953552
      ],
      "type": "VEC3"
    },
    {
      "bufferView": 3,
      "byteOffset": 816,
      "componentType": 5126,
      "count": 120,
      "max": [
        4.0
      ],
      "min": [
        0.03333333507180214
      ],
      "type": "SCALAR"
    },
    {
      "bufferView": 5,
      "byteOffset": 1920,
      "componentType": 5126,
      "count": 120,
      "max": [
        0.0,
        1.0,
        0.0,
        1.0
      ],
      "min": [
        0.0,
        -0.9977765679359436,
        0.0,
        1.6292068494294654e-07
      ],
      "type": "VEC4"
    },
    {
      "bufferView": 3,
      "byteOffset": 1296,
      "componentType": 5126,
      "count": 45,
      "max": [
        4.0
      ],
      "min": [
        0.03333333507180214
      ],
      "type": "SCALAR"
    },
    {
      "bufferView": 4,
      "byteOffset": 1008,
      "componentType": 5126,
      "count": 45,
      "max": [
        1.0,
        1.0,
        1.0
      ],
      "min": [
        0.9999999403953552,
        1.0,
        0.9999999403953552
      ],
      "type": "VEC3"
    }
  ],
  "animations": [
    {
      "channels": [
        {
          "sampler": 0,
          "target": {
            "node": 4,
            "path": "rotation"
          }
        },
        {
          "sampler": 1,
          "target": {
            "node": 4,
            "path": "scale"
          }
        },
        {
          "sampler": 2,
          "target": {
            "node": 7,
            "path": "rotation"
          }
        },
        {
          "sampler": 3,
          "target": {
            "node": 7,
            "path": "scale"
          }
        }
      ],
      "name": "Spin",
      "samplers": [
        {
          "input": 8,
          "interpolation": "LINEAR",
          "output": 9
        },
        {
          "input": 10,
          "interpolation": "LINEAR",
          "output": 11
        },
        {
          "input": 12,
          "interpolation": "LINEAR",
          "output": 13
        },
        {
          "input": 14,
          "interpolation": "LINEAR",
          "output": 15
        }
      ]
    }
  ],
  "asset": {
    "extras": {
      "author": "DiabolicMaggot (https://sketchfab.com/DiabolicMaggot)",
      "license": "CC-BY-4.0 (http://creativecommons.org/licenses/by/4.0/)",
      "source": "https://sketchfab.com/3d-models/kf2-medic-perk-symbol-d51c06307a174d4bb0b275b2396cc7ce",
      "title": "KF2 Medic Perk Symbol"
    },
    "generator": "Sketchfab-12.66.0",
    "version": "2.0"
  },
  "bufferViews": [
    {
      "buffer": 0,
      "byteLength": 86016,
      "name": "floatBufferViews",
      "target": 34963
    },
    {
      "buffer": 0,
      "byteLength": 37152,
      "byteOffset": 86016,
      "byteStride": 8,
      "name": "floatBufferViews",
      "target": 34962
    },
    {
      "buffer": 0,
      "byteLength": 111456,
      "byteOffset": 123168,
      "byteStride": 12,
      "name": "floatBufferViews",
      "target": 34962
    },
    {
      "buffer": 0,
      "byteLength": 1476,
      "byteOffset": 234624,
      "name": "floatBufferViews"
    },
    {
      "buffer": 0,
      "byteLength": 1548,
      "byteOffset": 236100,
      "byteStride": 12,
      "name": "floatBufferViews"
    },
    {
      "buffer": 0,
      "byteLength": 3840,
      "byteOffset": 237648,
      "byteStride": 16,
      "name": "floatBufferViews"
    }
  ],
  "buffers": [
    {
      "byteLength": 241488,
      "uri": "scene.bin"
    }
  ],
  "materials": [
    {
      "doubleSided": true,
      "name": "Medic",
      "pbrMetallicRoughness": {
        "baseColorFactor": [
          0.14996,
          0.0,
          0.0,
          1.0
        ],
        "metallicFactor": 0.0,
        "roughnessFactor": 0.4
      }
    }
  ],
  "meshes": [
    {
      "name": "Object_0",
      "primitives": [
        {
          "attributes": {
            "NORMAL": 1,
            "POSITION": 0,
            "TEXCOORD_0": 2
          },
          "indices": 3,
          "material": 0,
          "mode": 4
        }
      ]
    },
    {
      "name": "Object_1",
      "primitives": [
        {
          "attributes": {
            "NORMAL": 5,
            "POSITION": 4,
            "TEXCOORD_0": 6
          },
          "indices": 7,
          "material": 0,
          "mode": 4
        }
      ]
    }
  ],
  "nodes": [
    {
      "children": [
        1
      ],
      "matrix": [
        1.0,
        0.0,
        0.0,
        0.0,
        0.0,
        2.220446049250313e-16,
        -1.0,
        0.0,
        0.0,
        1.0,
        2.220446049250313e-16,
        0.0,
        0.0,
        0.0,
        0.0,
        1.0
      ],
      "name": "Sketchfab_model"
    },
    {
      "children": [
        2
      ],
      "name": "root"
    },
    {
      "children": [
        3
      ],
      "matrix": [
        1.0,
        0.0,
        0.0,
        0.0,
        0.0,
        2.220446049250313e-16,
        1.0,
        0.0,
        0.0,
        -1.0,
        2.220446049250313e-16,
        0.0,
        0.0,
        0.0,
        0.0,
        1.0
      ],
      "name": "GLTF_SceneRootNode"
    },
    {
      "children": [
        4,
        7
      ],
      "name": "Medic_6"
    },
    {
      "children": [
        5
      ],
      "name": "CrossBone_3"
    },
    {
      "children": [
        6
      ],
      "matrix": [
        1.0,
        0.0,
        0.0,
        0.0,
        0.0,
        0.0,
        1.0,
        0.0,
        0.0,
        -1.0,
        0.0,
        0.0,
        0.0,
        1.0,
        0.0,
        1.0
      ],
      "name": "Cross_2"
    },
    {
      "mesh": 0,
      "name": "Object_6"
    },
    {
      "children": [
        8
      ],
      "name": "RingBone_5"
    },
    {
      "children": [
        9
      ],
      "matrix": [
        1.0,
        0.0,
        0.0,
        0.0,
        0.0,
        0.0,
        1.0,
        0.0,
        0.0,
        -1.0,
        0.0,
        0.0,
        0.0,
        1.0,
        0.0,
        1.0
      ],
      "name": "Ring_4"
    },
    {
      "mesh": 1,
      "name": "Object_9"
    }
  ],
  "scene": 0,
  "scenes": [
    {
      "name": "Sketchfab_Scene",
      "nodes": [
        0
      ]
    }
  ]
}
